<svg xmlns="http://www.w3.org/2000/svg" xmlns:xlink="http://www.w3.org/1999/xlink" width="269" zoomAndPan="magnify" viewBox="0 0 201.75 42" height="56" preserveAspectRatio="xMidYMid meet" version="1.0"><defs><g/><clipPath id="d9123ccb9f"><path d="M 92.679688 9.976562 L 99.28125 9.976562 L 99.28125 33.449219 L 92.679688 33.449219 Z M 92.679688 9.976562 " clip-rule="nonzero"/></clipPath><clipPath id="fe87a67552"><path d="M 58.203125 2.378906 L 77.273438 2.378906 L 77.273438 39.050781 L 58.203125 39.050781 Z M 58.203125 2.378906 " clip-rule="nonzero"/></clipPath><clipPath id="d0ec64b7ce"><path d="M 60.226562 2.378906 L 97.3125 2.378906 L 97.3125 39.464844 L 60.226562 39.464844 Z M 60.226562 2.378906 " clip-rule="nonzero"/></clipPath><clipPath id="0aa7cadf3c"><path d="M 78.769531 39.464844 C 89.011719 39.464844 97.3125 31.164062 97.3125 20.921875 C 97.3125 10.679688 89.011719 2.378906 78.769531 2.378906 C 68.527344 2.378906 60.226562 10.679688 60.226562 20.921875 C 60.226562 31.164062 68.527344 39.464844 78.769531 39.464844 " clip-rule="nonzero"/></clipPath></defs><g clip-path="url(#d9123ccb9f)"><path fill="#36d6e7" d="M 75.808594 21.710938 C 75.808594 20.941406 75.886719 20.179688 76.035156 19.421875 C 76.1875 18.667969 76.410156 17.933594 76.703125 17.222656 C 76.996094 16.511719 77.359375 15.832031 77.789062 15.191406 C 78.214844 14.550781 78.703125 13.960938 79.246094 13.414062 C 79.792969 12.871094 80.382812 12.382812 81.023438 11.953125 C 81.667969 11.527344 82.34375 11.164062 83.054688 10.871094 C 83.765625 10.574219 84.5 10.351562 85.253906 10.203125 C 86.011719 10.050781 86.773438 9.976562 87.546875 9.976562 C 88.316406 9.976562 89.078125 10.050781 89.835938 10.203125 C 90.589844 10.351562 91.324219 10.574219 92.035156 10.871094 C 92.75 11.164062 93.425781 11.527344 94.066406 11.953125 C 94.707031 12.382812 95.296875 12.871094 95.84375 13.414062 C 96.386719 13.960938 96.875 14.550781 97.304688 15.191406 C 97.730469 15.832031 98.09375 16.511719 98.386719 17.222656 C 98.683594 17.933594 98.90625 18.667969 99.054688 19.421875 C 99.207031 20.179688 99.28125 20.941406 99.28125 21.710938 C 99.28125 22.484375 99.207031 23.246094 99.054688 24.003906 C 98.90625 24.757812 98.683594 25.492188 98.386719 26.203125 C 98.09375 26.914062 97.730469 27.59375 97.304688 28.234375 C 96.875 28.875 96.386719 29.464844 95.84375 30.011719 C 95.296875 30.554688 94.707031 31.042969 94.066406 31.46875 C 93.425781 31.898438 92.75 32.261719 92.035156 32.554688 C 91.324219 32.851562 90.589844 33.074219 89.835938 33.222656 C 89.078125 33.371094 88.316406 33.449219 87.546875 33.449219 C 86.773438 33.449219 86.011719 33.371094 85.253906 33.222656 C 84.5 33.074219 83.765625 32.851562 83.054688 32.554688 C 82.34375 32.261719 81.667969 31.898438 81.023438 31.46875 C 80.382812 31.042969 79.792969 30.554688 79.246094 30.011719 C 78.703125 29.464844 78.214844 28.875 77.789062 28.234375 C 77.359375 27.59375 76.996094 26.914062 76.703125 26.203125 C 76.410156 25.492188 76.1875 24.757812 76.035156 24.003906 C 75.886719 23.246094 75.808594 22.484375 75.808594 21.710938 Z M 75.808594 21.710938 " fill-opacity="1" fill-rule="nonzero"/></g><g clip-path="url(#fe87a67552)"><path fill="#59a14f" d="M 94.878906 20.714844 C 94.878906 21.316406 94.847656 21.914062 94.789062 22.511719 C 94.730469 23.109375 94.644531 23.703125 94.527344 24.292969 C 94.410156 24.882812 94.261719 25.464844 94.089844 26.039062 C 93.914062 26.613281 93.710938 27.179688 93.480469 27.734375 C 93.253906 28.289062 92.996094 28.828125 92.714844 29.359375 C 92.429688 29.890625 92.121094 30.402344 91.789062 30.902344 C 91.453125 31.402344 91.097656 31.882812 90.714844 32.347656 C 90.335938 32.8125 89.933594 33.257812 89.507812 33.683594 C 89.082031 34.105469 88.636719 34.507812 88.175781 34.890625 C 87.710938 35.269531 87.226562 35.628906 86.730469 35.960938 C 86.230469 36.296875 85.714844 36.605469 85.183594 36.886719 C 84.65625 37.171875 84.113281 37.425781 83.558594 37.65625 C 83.003906 37.886719 82.4375 38.089844 81.863281 38.261719 C 81.289062 38.4375 80.707031 38.582031 80.117188 38.699219 C 79.53125 38.816406 78.9375 38.90625 78.339844 38.964844 C 77.742188 39.023438 77.140625 39.050781 76.542969 39.050781 C 75.941406 39.050781 75.34375 39.023438 74.746094 38.964844 C 74.148438 38.90625 73.554688 38.816406 72.964844 38.699219 C 72.375 38.582031 71.792969 38.4375 71.21875 38.261719 C 70.644531 38.089844 70.078125 37.886719 69.523438 37.65625 C 68.96875 37.425781 68.425781 37.171875 67.898438 36.886719 C 67.367188 36.605469 66.855469 36.296875 66.355469 35.960938 C 65.855469 35.628906 65.375 35.269531 64.910156 34.890625 C 64.445312 34.507812 64 34.105469 63.574219 33.683594 C 63.152344 33.257812 62.75 32.8125 62.367188 32.347656 C 61.984375 31.882812 61.628906 31.402344 61.296875 30.902344 C 60.960938 30.402344 60.652344 29.890625 60.371094 29.359375 C 60.085938 28.828125 59.832031 28.289062 59.601562 27.734375 C 59.371094 27.179688 59.167969 26.613281 58.996094 26.039062 C 58.820312 25.464844 58.675781 24.882812 58.558594 24.292969 C 58.441406 23.703125 58.351562 23.109375 58.292969 22.511719 C 58.234375 21.914062 58.203125 21.316406 58.203125 20.714844 C 58.203125 20.117188 58.234375 19.515625 58.292969 18.917969 C 58.351562 18.320312 58.441406 17.726562 58.558594 17.136719 C 58.675781 16.550781 58.820312 15.96875 58.996094 15.394531 C 59.167969 14.816406 59.371094 14.253906 59.601562 13.699219 C 59.832031 13.144531 60.085938 12.601562 60.371094 12.070312 C 60.652344 11.542969 60.960938 11.027344 61.296875 10.527344 C 61.628906 10.027344 61.984375 9.546875 62.367188 9.082031 C 62.75 8.617188 63.152344 8.175781 63.574219 7.75 C 64 7.324219 64.445312 6.921875 64.910156 6.542969 C 65.375 6.160156 65.855469 5.804688 66.355469 5.46875 C 66.855469 5.136719 67.367188 4.828125 67.898438 4.542969 C 68.425781 4.261719 68.96875 4.003906 69.523438 3.773438 C 70.078125 3.546875 70.644531 3.34375 71.21875 3.167969 C 71.792969 2.996094 72.375 2.847656 72.964844 2.730469 C 73.554688 2.613281 74.148438 2.527344 74.746094 2.46875 C 75.34375 2.410156 75.941406 2.378906 76.542969 2.378906 C 77.140625 2.378906 77.742188 2.410156 78.339844 2.46875 C 78.9375 2.527344 79.53125 2.613281 80.117188 2.730469 C 80.707031 2.847656 81.289062 2.996094 81.863281 3.167969 C 82.4375 3.34375 83.003906 3.546875 83.558594 3.773438 C 84.113281 4.003906 84.65625 4.261719 85.183594 4.542969 C 85.714844 4.828125 86.230469 5.136719 86.730469 5.46875 C 87.226562 5.804688 87.710938 6.160156 88.175781 6.542969 C 88.636719 6.921875 89.082031 7.324219 89.507812 7.75 C 89.933594 8.175781 90.335938 8.617188 90.714844 9.082031 C 91.097656 9.546875 91.453125 10.027344 91.789062 10.527344 C 92.121094 11.027344 92.429688 11.542969 92.714844 12.070312 C 92.996094 12.601562 93.253906 13.144531 93.480469 13.699219 C 93.710938 14.253906 93.914062 14.816406 94.089844 15.394531 C 94.261719 15.96875 94.410156 16.550781 94.527344 17.136719 C 94.644531 17.726562 94.730469 18.320312 94.789062 18.917969 C 94.847656 19.515625 94.878906 20.117188 94.878906 20.714844 Z M 94.878906 20.714844 " fill-opacity="1" fill-rule="nonzero"/></g><g clip-path="url(#d0ec64b7ce)"><g clip-path="url(#0aa7cadf3c)"><path fill="#050a30" d="M 97.3125 39.464844 L 60.226562 39.464844 L 60.226562 2.378906 L 97.3125 2.378906 Z M 97.3125 39.464844 " fill-opacity="1" fill-rule="nonzero"/></g></g><g fill="#ffffff" fill-opacity="1"><g transform="translate(62.762038, 26.62363)"><g><path d="M 0.71875 -1.265625 C 0.71875 -0.390625 1.359375 0.21875 2.203125 0.21875 C 3.046875 0.21875 3.6875 -0.390625 3.6875 -1.265625 C 3.6875 -2.140625 3.046875 -2.75 2.203125 -2.75 C 1.359375 -2.75 0.71875 -2.140625 0.71875 -1.265625 Z M 0.71875 -1.265625 "/></g></g></g><g fill="#ffffff" fill-opacity="1"><g transform="translate(66.5874, 26.62363)"><g><path d="M 0.46875 -6.714844 L 0.46875 -4.21875 C 0.46875 -1.3125 2.3125 0.21875 4.996094 0.21875 C 7.886719 0.21875 9.308594 -1.328125 9.308594 -3.75 L 9.308594 -4.125 L 7.246094 -4.125 L 7.246094 -3.71875 C 7.246094 -2.484375 6.636719 -1.625 4.996094 -1.625 C 3.390625 -1.625 2.53125 -2.625 2.53125 -4.125 L 2.53125 -6.808594 C 2.53125 -8.183594 3.453125 -9.308594 4.996094 -9.308594 C 6.496094 -9.308594 7.246094 -8.464844 7.246094 -7.214844 L 7.246094 -6.808594 L 9.308594 -6.808594 L 9.308594 -7.183594 C 9.308594 -9.621094 7.761719 -11.152344 4.996094 -11.152344 C 2.234375 -11.152344 0.46875 -9.433594 0.46875 -6.714844 Z M 0.46875 -6.714844 "/></g></g></g><g fill="#ffffff" fill-opacity="1"><g transform="translate(75.721629, 26.62363)"><g><path d="M 4.636719 -11.152344 C 2.515625 -11.152344 0.84375 -9.933594 0.84375 -7.980469 C 0.84375 -5.996094 2.1875 -5.214844 4.453125 -4.714844 L 4.589844 -4.683594 C 6.027344 -4.375 6.839844 -4.0625 6.839844 -3.109375 C 6.839844 -2.296875 6.214844 -1.59375 4.886719 -1.59375 C 3.234375 -1.59375 2.46875 -2.5 2.46875 -3.84375 L 2.46875 -4.125 L 0.4375 -4.125 L 0.4375 -3.78125 C 0.4375 -1.21875 2.15625 0.21875 4.824219 0.21875 C 7.152344 0.21875 8.871094 -1.015625 8.871094 -3.21875 C 8.871094 -5.199219 7.542969 -5.996094 5.292969 -6.496094 L 5.152344 -6.527344 C 3.84375 -6.824219 2.875 -7.011719 2.875 -8.042969 C 2.875 -8.792969 3.546875 -9.339844 4.636719 -9.339844 C 5.886719 -9.339844 6.683594 -8.792969 6.683594 -7.542969 L 6.683594 -7.214844 L 8.683594 -7.214844 L 8.683594 -7.683594 C 8.683594 -9.871094 6.980469 -11.152344 4.636719 -11.152344 Z M 4.636719 -11.152344 "/></g></g></g><g fill="#ffffff" fill-opacity="1"><g transform="translate(84.5748, 26.62363)"><g><path d="M 0.03125 -10.933594 L 3.078125 0 L 6.292969 0 L 9.339844 -10.933594 L 7.214844 -10.933594 L 4.777344 -1.828125 L 4.589844 -1.828125 L 2.15625 -10.933594 Z M 0.03125 -10.933594 "/></g></g></g><g fill="#ffffff" fill-opacity="1"><g transform="translate(93.365347, 26.62363)"><g/></g></g><g fill="#ffffff" fill-opacity="1"><g transform="translate(97.003339, 26.62363)"><g/></g></g><g fill="#050a30" fill-opacity="1"><g transform="translate(101.237749, 26.596059)"><g><path d="M 0.03125 -10.933594 L 3.078125 0 L 6.292969 0 L 9.339844 -10.933594 L 7.214844 -10.933594 L 4.777344 -1.828125 L 4.589844 -1.828125 L 2.15625 -10.933594 Z M 0.03125 -10.933594 "/></g></g></g><g fill="#050a30" fill-opacity="1"><g transform="translate(110.028465, 26.596059)"><g><path d="M 0.90625 -10.933594 L 0.90625 0 L 2.96875 0 L 2.96875 -10.933594 Z M 0.90625 -10.933594 "/></g></g></g><g fill="#050a30" fill-opacity="1"><g transform="translate(113.32294, 26.596059)"><g><path d="M 0.90625 -10.933594 L 0.90625 0 L 8.183594 0 L 8.183594 -1.875 L 2.96875 -1.875 L 2.96875 -4.574219 L 7.652344 -4.574219 L 7.652344 -6.449219 L 2.96875 -6.449219 L 2.96875 -9.058594 L 8.089844 -9.058594 L 8.089844 -10.933594 Z M 0.90625 -10.933594 "/></g></g></g><g fill="#050a30" fill-opacity="1"><g transform="translate(121.364166, 26.596059)"><g><path d="M 0.15625 -10.933594 L 1.875 0 L 5.230469 0 L 6.902344 -8.933594 L 7.089844 -8.933594 L 8.761719 0 L 12.121094 0 L 13.835938 -10.933594 L 11.777344 -10.933594 L 10.464844 -2 L 10.277344 -2 L 8.605469 -10.933594 L 5.386719 -10.933594 L 3.71875 -2 L 3.53125 -2 L 2.21875 -10.933594 Z M 0.15625 -10.933594 "/></g></g></g><g fill="#050a30" fill-opacity="1"><g transform="translate(134.776717, 26.596059)"><g><path d="M 0.90625 -10.933594 L 0.90625 0 L 8.183594 0 L 8.183594 -1.875 L 2.96875 -1.875 L 2.96875 -4.574219 L 7.652344 -4.574219 L 7.652344 -6.449219 L 2.96875 -6.449219 L 2.96875 -9.058594 L 8.089844 -9.058594 L 8.089844 -10.933594 Z M 0.90625 -10.933594 "/></g></g></g><g fill="#050a30" fill-opacity="1"><g transform="translate(142.817944, 26.596059)"><g><path d="M 9.214844 -7.480469 C 9.214844 -9.558594 7.777344 -10.917969 5.714844 -10.917969 L 0.90625 -10.917969 L 0.90625 0 L 2.96875 0 L 2.96875 -4.046875 L 4.792969 -4.046875 L 6.808594 0 L 9.089844 0 L 6.871094 -4.21875 C 8.277344 -4.636719 9.214844 -5.824219 9.214844 -7.480469 Z M 2.96875 -9.042969 L 5.511719 -9.042969 C 6.496094 -9.042969 7.152344 -8.433594 7.152344 -7.480469 C 7.152344 -6.527344 6.496094 -5.917969 5.511719 -5.917969 L 2.96875 -5.917969 Z M 2.96875 -9.042969 "/></g></g></g></svg>